<svg id="choices" xmlns="http://www.w3.org/2000/svg" width="83.576" height="102.387" viewBox="0 0 83.576 102.387">
  <g id="Groupe_10644" data-name="Groupe 10644" transform="translate(10.26 15.39)">
    <g id="Groupe_10643" data-name="Groupe 10643">
      <path id="Tracé_73" data-name="Tracé 73" d="M110.2,82.09a1.6,1.6,0,0,0-1.6,1.6,3.527,3.527,0,1,1-3.527-3.527,1.6,1.6,0,1,0,0-3.206,6.733,6.733,0,1,0,6.733,6.733A1.6,1.6,0,0,0,110.2,82.09Z" transform="translate(-98.338 -76.96)" fill="#413f4d"/>
    </g>
  </g>
  <g id="Groupe_10646" data-name="Groupe 10646" transform="translate(10.26 34.2)">
    <g id="Groupe_10645" data-name="Groupe 10645">
      <path id="Tracé_74" data-name="Tracé 74" d="M110.2,176.152a1.6,1.6,0,0,0-1.6,1.6,3.527,3.527,0,1,1-3.527-3.527,1.6,1.6,0,0,0,0-3.206,6.733,6.733,0,1,0,6.733,6.733A1.6,1.6,0,0,0,110.2,176.152Z" transform="translate(-98.338 -171.022)" fill="#413f4d"/>
    </g>
  </g>
  <g id="Groupe_10648" data-name="Groupe 10648" transform="translate(27.36 42.75)">
    <g id="Groupe_10647" data-name="Groupe 10647">
      <path id="Tracé_75" data-name="Tracé 75" d="M197.422,213.779h-11.97a1.6,1.6,0,0,0,0,3.206h11.97a1.6,1.6,0,1,0,0-3.206Z" transform="translate(-183.849 -213.779)" fill="#413f4d"/>
    </g>
  </g>
  <g id="Groupe_10650" data-name="Groupe 10650" transform="translate(27.36 35.91)">
    <g id="Groupe_10649" data-name="Groupe 10649">
      <path id="Tracé_76" data-name="Tracé 76" d="M197.422,179.574h-11.97a1.6,1.6,0,0,0,0,3.206h11.97a1.6,1.6,0,0,0,0-3.206Z" transform="translate(-183.849 -179.574)" fill="#413f4d"/>
    </g>
  </g>
  <g id="Groupe_10652" data-name="Groupe 10652" transform="translate(27.36 61.56)">
    <g id="Groupe_10651" data-name="Groupe 10651">
      <path id="Tracé_77" data-name="Tracé 77" d="M194,307.841h-8.55a1.6,1.6,0,1,0,0,3.206H194a1.6,1.6,0,1,0,0-3.206Z" transform="translate(-183.849 -307.841)" fill="#413f4d"/>
    </g>
  </g>
  <g id="Groupe_10654" data-name="Groupe 10654" transform="translate(27.36 54.72)">
    <g id="Groupe_10653" data-name="Groupe 10653">
      <path id="Tracé_78" data-name="Tracé 78" d="M197.422,273.637h-11.97a1.6,1.6,0,1,0,0,3.206h11.97a1.6,1.6,0,1,0,0-3.206Z" transform="translate(-183.849 -273.637)" fill="#413f4d"/>
    </g>
  </g>
  <g id="Groupe_10656" data-name="Groupe 10656" transform="translate(27.36 23.94)">
    <g id="Groupe_10655" data-name="Groupe 10655">
      <path id="Tracé_79" data-name="Tracé 79" d="M212.812,119.716h-27.36a1.6,1.6,0,0,0,0,3.206h27.36a1.6,1.6,0,0,0,0-3.206Z" transform="translate(-183.849 -119.716)" fill="#413f4d"/>
    </g>
  </g>
  <g id="Groupe_10658" data-name="Groupe 10658" transform="translate(27.36 17.1)">
    <g id="Groupe_10657" data-name="Groupe 10657">
      <path id="Tracé_80" data-name="Tracé 80" d="M205.972,85.511h-20.52a1.6,1.6,0,1,0,0,3.206h20.52a1.6,1.6,0,1,0,0-3.206Z" transform="translate(-183.849 -85.511)" fill="#413f4d"/>
    </g>
  </g>
  <g id="Groupe_10660" data-name="Groupe 10660" transform="translate(10.26 53.01)">
    <g id="Groupe_10659" data-name="Groupe 10659">
      <path id="Tracé_81" data-name="Tracé 81" d="M110.2,270.215a1.6,1.6,0,0,0-1.6,1.6,3.527,3.527,0,1,1-3.527-3.527,1.6,1.6,0,1,0,0-3.206,6.733,6.733,0,1,0,6.733,6.733A1.6,1.6,0,0,0,110.2,270.215Z" transform="translate(-98.338 -265.085)" fill="#413f4d"/>
    </g>
  </g>
  <g id="Groupe_10662" data-name="Groupe 10662" transform="translate(0)">
    <g id="Groupe_10661" data-name="Groupe 10661">
      <path id="Tracé_82" data-name="Tracé 82" d="M110.194,0H52.054a5.029,5.029,0,0,0-5.023,5.023v71.82a5.029,5.029,0,0,0,5.023,5.023h29.07a1.6,1.6,0,0,0,0-3.206H52.054a1.819,1.819,0,0,1-1.817-1.817V5.023a1.819,1.819,0,0,1,1.817-1.817h58.14a1.819,1.819,0,0,1,1.817,1.817v53.01a1.6,1.6,0,0,0,3.206,0V5.023A5.029,5.029,0,0,0,110.194,0Z" transform="translate(-47.031)" fill="#413f4d"/>
    </g>
  </g>
  <g id="Groupe_10664" data-name="Groupe 10664" transform="translate(38.479 35.911)">
    <g id="Groupe_10663" data-name="Groupe 10663">
      <path id="Tracé_83" data-name="Tracé 83" d="M279.271,208.677a5.915,5.915,0,0,0-4.158,1.169,5.839,5.839,0,0,0-4.392-2.879,5.916,5.916,0,0,0-4.158,1.169,5.839,5.839,0,0,0-4.392-2.879,5.923,5.923,0,0,0-3.273.614V185.455a5.879,5.879,0,0,0-6.479-5.848,6.065,6.065,0,0,0-5.277,6.092v20.467l-4.713,4.713a10.089,10.089,0,0,0-2.7,9.5l3.578,15.205a13.521,13.521,0,0,0,13.212,10.464h14.459a13.589,13.589,0,0,0,13.573-13.573V214.77A6.065,6.065,0,0,0,279.271,208.677Zm2.071,23.8a10.379,10.379,0,0,1-10.367,10.367H256.516a10.327,10.327,0,0,1-10.091-7.992l-3.578-15.205a6.9,6.9,0,0,1,1.85-6.5l2.445-2.445v5.535a1.6,1.6,0,0,0,3.206,0V185.7a2.834,2.834,0,0,1,2.391-2.9,2.673,2.673,0,0,1,2.953,2.658v28.215a1.6,1.6,0,0,0,3.206,0v-2.565a2.673,2.673,0,0,1,2.953-2.658,2.835,2.835,0,0,1,2.391,2.9v4.031a1.6,1.6,0,0,0,3.206,0v-2.565a2.673,2.673,0,0,1,2.953-2.658,2.835,2.835,0,0,1,2.391,2.9v4.031a1.6,1.6,0,1,0,3.206,0v-2.565a2.673,2.673,0,0,1,2.953-2.658,2.835,2.835,0,0,1,2.391,2.9V232.48Z" transform="translate(-239.452 -179.578)" fill="#413f4d"/>
    </g>
  </g>
</svg>
