<svg id="order" xmlns="http://www.w3.org/2000/svg" width="99.142" height="110.367" viewBox="0 0 99.142 110.367">
  <g id="Groupe_10666" data-name="Groupe 10666" transform="translate(7.482 61.728)">
    <g id="Groupe_10665" data-name="Groupe 10665">
      <path id="Tracé_84" data-name="Tracé 84" d="M57.875,264A1.871,1.871,0,0,0,56,265.873v7.482a1.871,1.871,0,1,0,3.741,0v-7.482A1.871,1.871,0,0,0,57.875,264Z" transform="translate(-56.004 -264.002)" fill="#4a4858"/>
    </g>
  </g>
  <g id="Groupe_10668" data-name="Groupe 10668" transform="translate(14.964 65.469)">
    <g id="Groupe_10667" data-name="Groupe 10667">
      <path id="Tracé_85" data-name="Tracé 85" d="M89.875,280A1.871,1.871,0,0,0,88,281.873v7.482a1.871,1.871,0,0,0,3.741,0v-7.482A1.871,1.871,0,0,0,89.875,280Z" transform="translate(-88.004 -280.002)" fill="#4a4858"/>
    </g>
  </g>
  <g id="Groupe_10670" data-name="Groupe 10670" transform="translate(61.73 72.951)">
    <g id="Groupe_10669" data-name="Groupe 10669">
      <path id="Tracé_86" data-name="Tracé 86" d="M311.346,314.559a1.87,1.87,0,0,0-2.095,3.1,11.223,11.223,0,1,1-6.274-1.914,1.871,1.871,0,0,0,0-3.741,14.964,14.964,0,1,0,8.369,2.557Z" transform="translate(-288.016 -312.002)" fill="#4a4858"/>
    </g>
  </g>
  <g id="Groupe_10672" data-name="Groupe 10672" transform="translate(0 0)">
    <g id="Groupe_10671" data-name="Groupe 10671">
      <path id="Tracé_87" data-name="Tracé 87" d="M122.26,81.7a22.437,22.437,0,0,0-12.212-14.176V26.188a1.87,1.87,0,0,0-.918-1.611L67.978.261a1.871,1.871,0,0,0-1.9,0L24.922,24.577c-.039.022-.067.056-.1.082s-.073.056-.11.086a1.844,1.844,0,0,0-.413.456c0,.013-.022.021-.03.034v.013a1.871,1.871,0,0,0-.211.612,1.657,1.657,0,0,1-.022.165,1.635,1.635,0,0,0-.026.163V74.821a1.87,1.87,0,0,0,.918,1.611l41.151,24.317a1.539,1.539,0,0,0,.152.064,1.479,1.479,0,0,0,.157.067,1.669,1.669,0,0,0,1.287,0,1.509,1.509,0,0,0,.159-.067c.049-.022.1-.036.15-.064l11.169-6.6A22.437,22.437,0,0,0,122.26,81.7ZM67.026,4.043l9.727,5.748L62.331,18.313a1.872,1.872,0,0,0,1.9,3.223l16.2-9.564,9.727,5.748L52.685,39.858,42.958,34.11l15.669-9.259a1.872,1.872,0,1,0-1.9-3.223L39.281,31.936l-9.729-5.748ZM50.814,43.1V55.589l-9.663-5.711V37.389ZM78.988,82.133a22.79,22.79,0,0,0-.616,8.126l-9.476,5.6V89.786a1.871,1.871,0,0,0-3.741,0v6.075L27.745,73.755V29.467l9.665,5.711V50.944a1.87,1.87,0,0,0,.918,1.612l13.4,7.922a1.871,1.871,0,0,0,2.823-1.611V45.308l10.6,6.264V82.3a1.871,1.871,0,1,0,3.741,0V51.573l33.9-20.033a1.871,1.871,0,0,0-1.9-3.221L67.026,48.333l-10.662-6.3L93.838,19.886l12.469,7.368V66.217A22.356,22.356,0,0,0,78.988,82.133ZM100.7,106.62A18.705,18.705,0,1,1,119.4,87.915,18.705,18.705,0,0,1,100.7,106.62Z" transform="translate(-24.004 0)" fill="#4a4858"/>
    </g>
  </g>
  <g id="Groupe_10674" data-name="Groupe 10674" transform="translate(69.232 82.326)">
    <g id="Groupe_10673" data-name="Groupe 10673">
      <path id="Tracé_88" data-name="Tracé 88" d="M334.449,352.625a1.87,1.87,0,0,0-2.6,0l-7.095,7.095-1.483-1.483a1.871,1.871,0,0,0-2.645,2.645l2.806,2.806a1.871,1.871,0,0,0,2.645,0l8.417-8.417A1.87,1.87,0,0,0,334.449,352.625Z" transform="translate(-320.102 -352.1)" fill="#4a4858"/>
    </g>
  </g>
</svg>
