<svg xmlns="http://www.w3.org/2000/svg" width="129.593" height="68.723" viewBox="0 0 129.593 68.723">
  <g id="truck" transform="translate(0 -120.245)">
    <g id="Groupe_10633" data-name="Groupe 10633" transform="translate(22.329 177.055)">
      <g id="Groupe_10632" data-name="Groupe 10632">
        <path id="Tracé_49" data-name="Tracé 49" d="M90.126,344.692h-.02a1.909,1.909,0,1,0,.02,0Z" transform="translate(-88.218 -344.692)" fill="#413f4d"/>
      </g>
    </g>
    <g id="Groupe_10635" data-name="Groupe 10635" transform="translate(38.561 177.055)">
      <g id="Groupe_10634" data-name="Groupe 10634">
        <path id="Tracé_50" data-name="Tracé 50" d="M154.255,344.692h-.02a1.908,1.908,0,1,0,.02,0Z" transform="translate(-152.347 -344.692)" fill="#413f4d"/>
      </g>
    </g>
    <g id="Groupe_10637" data-name="Groupe 10637" transform="translate(105.517 177.055)">
      <g id="Groupe_10636" data-name="Groupe 10636">
        <path id="Tracé_51" data-name="Tracé 51" d="M418.788,344.692h-.02a1.909,1.909,0,1,0,.02,0Z" transform="translate(-416.879 -344.692)" fill="#413f4d"/>
      </g>
    </g>
    <g id="Groupe_10639" data-name="Groupe 10639" transform="translate(0 120.245)">
      <g id="Groupe_10638" data-name="Groupe 10638">
        <path id="Tracé_52" data-name="Tracé 52" d="M127.849,154.1l-2.552-2.552-5.142-15.426a1.9,1.9,0,0,0-.575-3.707H101.188v-8.246a3.932,3.932,0,0,0-3.927-3.927H3.927A3.932,3.932,0,0,0,0,124.172V168.81a3.932,3.932,0,0,0,3.927,3.927h2.16v4.188a3.932,3.932,0,0,0,3.927,3.927h4.372a10.008,10.008,0,0,0,17.947,3.958,10.008,10.008,0,0,0,17.947-3.958H97.574a10.013,10.013,0,0,0,19.846-1.9c0-.044,0-.086,0-.13h8.25a3.932,3.932,0,0,0,3.927-3.927V158.316A5.916,5.916,0,0,0,127.849,154.1ZM14.386,177.055H10.014a.131.131,0,0,1-.131-.131v-4.187h6.491A9.975,9.975,0,0,0,14.386,177.055Zm9.831,8.116a6.217,6.217,0,0,1-.039-12.434h.078a6.217,6.217,0,0,1-.039,12.434Zm16.232,0a6.217,6.217,0,0,1-.039-12.434h.078a6.217,6.217,0,0,1-.039,12.434Zm57.125-8.116H50.281a9.974,9.974,0,0,0-1.989-4.318h36.8a1.9,1.9,0,1,0,0-3.8H3.927a.131.131,0,0,1-.131-.131V124.172a.131.131,0,0,1,.131-.131H97.26a.131.131,0,0,1,.131.131v44.768H93.2a1.9,1.9,0,0,0,0,3.8h6.36A9.972,9.972,0,0,0,97.574,177.055Zm24.106-24.348H109.434a.131.131,0,0,1-.131-.131V144.33h9.584Zm-14.274,32.464a6.217,6.217,0,0,1-.039-12.434h.052a6.217,6.217,0,0,1-.013,12.435ZM125.8,174.9a.131.131,0,0,1-.131.131h-9.049a10.029,10.029,0,0,0-9.212-6.088h-6.217V136.346h0a.131.131,0,0,1,.131-.131h14.864l1.44,4.319H107.405a1.9,1.9,0,0,0-1.9,1.9v10.145a3.932,3.932,0,0,0,3.927,3.927H124.88l.285.284a2.146,2.146,0,0,1,.633,1.527v4.538h-2.16a1.9,1.9,0,1,0,0,3.8h2.16Z" transform="translate(0 -120.245)" fill="#413f4d"/>
      </g>
    </g>
    <g id="Groupe_10641" data-name="Groupe 10641" transform="translate(8.116 160.824)">
      <g id="Groupe_10640" data-name="Groupe 10640">
        <path id="Tracé_53" data-name="Tracé 53" d="M115.122,280.567H33.962a1.9,1.9,0,0,0,0,3.8h81.159a1.9,1.9,0,0,0,0-3.8Z" transform="translate(-32.064 -280.567)" fill="#413f4d"/>
      </g>
    </g>
  </g>
</svg>
